<svg width="80" height="80" viewBox="0 0 80 80" fill="none" xmlns="http://www.w3.org/2000/svg">
<g clip-path="url(#clip0_9_5)">
<path d="M12.4244 14.4938H9.00961L9.47526 10.7519H13.0735C14.6821 10.7519 15.4934 11.4488 15.3594 12.5427V12.5846C15.1901 13.8737 14.033 14.4938 12.4244 14.4938ZM15.4088 18.5145V18.4796C15.5569 17.2881 14.7032 16.5843 12.7066 16.5843H8.74857L8.26881 20.4517H12.4173C14.1106 20.4517 15.2535 19.7827 15.4088 18.5145ZM36.9133 20.7513C37.8249 20.7215 38.6922 20.356 39.345 19.7268C39.9977 19.0977 40.3886 18.2502 40.441 17.3508V17.309C40.6738 15.2603 39.4391 13.9364 37.767 13.9364C36.8641 13.9884 36.0104 14.3603 35.3625 14.9835C34.7146 15.6068 34.3159 16.4398 34.2393 17.3299V17.3718C33.9501 19.3855 35.2765 20.7513 36.9133 20.7513ZM49.3588 20.7513C50.2624 20.6976 51.1161 20.3243 51.7639 19.7C52.4117 19.0755 52.8102 18.2416 52.8865 17.3508V17.309C53.1546 15.2603 51.8564 13.9364 50.2055 13.9364C49.2945 13.9645 48.4272 14.3284 47.7743 14.9564C47.1215 15.5845 46.7303 16.4312 46.6778 17.3299V17.3718C46.4309 19.3994 47.6867 20.7513 49.3871 20.7513H49.3588ZM29.9356 32.2906L29.6675 34.4786H49.5211C51.0132 34.509 52.4907 34.1836 53.8283 33.5297C55.1659 32.8759 56.324 31.913 57.2043 30.7228L59.6384 35.1615C59.746 35.3562 59.9107 35.5144 60.1109 35.6151C60.3111 35.7159 60.5374 35.7545 60.7602 35.7259C60.9821 35.6968 61.1898 35.602 61.3561 35.454C61.5223 35.306 61.6393 35.1117 61.6915 34.8967L66.6937 13.2953L69.022 39.4608C69.0466 39.7393 69.1627 40.002 69.3524 40.2092C69.5422 40.4165 69.7953 40.5567 70.0733 40.6088C70.3513 40.6609 70.6388 40.6218 70.8922 40.4977C71.1457 40.3734 71.3511 40.1709 71.4772 39.9208L75.2377 32.2558C75.9432 33.3289 77.0368 34.4996 78.7089 34.4996H80V79.0333H0V0H80V32.2906H78.7089C77.707 32.2906 76.938 30.8273 76.5217 30.0399C76.38 29.7205 76.1897 29.4244 75.9573 29.1619C75.8323 29.0457 75.6824 28.9591 75.5186 28.9083C75.3549 28.8577 75.1816 28.8443 75.0119 28.8692C74.8416 28.8975 74.6804 28.9645 74.5408 29.0649C74.4012 29.1652 74.2872 29.2963 74.2076 29.4476L70.9339 36.3461L68.4364 8.83567C68.4616 8.46605 68.3372 8.10167 68.0904 7.82267C67.8437 7.54366 67.4948 7.37291 67.1206 7.34796C66.7463 7.32301 66.3774 7.44592 66.0949 7.68963C65.8124 7.93334 65.6395 8.27792 65.6143 8.64753L60.2169 31.6426L58.2838 28.1584C58.2109 28.0244 58.1106 27.9068 57.9891 27.8132C57.8676 27.7196 57.7277 27.6521 57.5783 27.6149C57.4286 27.5776 57.2727 27.572 57.1207 27.5983C56.9687 27.6248 56.8241 27.6827 56.6964 27.7683C56.4492 27.9508 56.2507 28.1899 56.1178 28.4651C55.4842 29.6481 54.5341 30.6369 53.3709 31.3237C52.2078 32.0105 50.8762 32.369 49.5211 32.3603L29.9356 32.2906ZM48.5052 22.8626C49.2653 22.8554 50.0135 22.6749 50.6914 22.3353C51.3694 21.9957 51.9588 21.5061 52.4138 20.9046L52.2092 22.6397H54.6715L55.9908 12.0201H53.5144L53.3098 13.6716C52.9629 13.083 52.4607 12.5984 51.8569 12.2695C51.253 11.9406 50.5701 11.7798 49.8809 11.8041C47.3128 11.8041 44.6459 13.79 44.2014 17.309V17.3508C43.7428 20.9046 45.9794 22.8626 48.5052 22.8626ZM30.7399 25.859H33.2093L33.809 20.9812C34.1561 21.5717 34.6591 22.058 35.2643 22.3881C35.8694 22.7182 36.554 22.8798 37.2449 22.8557C39.7919 22.8557 42.4799 20.8628 42.8891 17.3438V17.302C43.3266 13.7622 41.1112 11.7971 38.5854 11.7971C37.8217 11.8066 37.0706 11.9908 36.3912 12.3354C35.7117 12.68 35.1225 13.1756 34.6697 13.7831L34.8884 12.0131H32.4544L30.7399 25.859ZM5.53135 22.6397H12.1281C15.3029 22.6397 17.5677 21.2948 17.8781 18.7793V18.7375C18.118 16.8281 17.0738 15.8805 15.4723 15.3231C16.1222 15.0583 16.6894 14.6278 17.1158 14.0757C17.5422 13.5236 17.8125 12.8695 17.8993 12.1804V12.1456C17.9694 11.7318 17.9456 11.3077 17.8297 10.904C17.7138 10.5003 17.5086 10.1271 17.229 9.81122C16.5235 9.0029 15.2888 8.56391 13.6591 8.56391H7.28106L5.53135 22.6397ZM30.1049 12.0201H27.6215L26.8736 18.0127C26.848 18.7164 26.5469 19.3829 26.0336 19.8716C25.5203 20.3604 24.835 20.6333 24.1221 20.6328C22.6616 20.6328 21.942 19.7061 22.1466 18.0546L22.8944 12.0201H20.4604L19.5926 18.8141C19.2821 21.2878 20.4886 22.8975 22.9085 22.8975C23.6149 22.8894 24.3091 22.7151 24.9336 22.3891C25.5581 22.0631 26.095 21.5949 26.4997 21.023L26.2951 22.6745H28.7786L30.1049 12.0201Z" fill="#0079C8"/>
<path d="M80.0004 32.291V34.4789H78.7093C77.0372 34.4789 75.9436 33.3083 75.2381 32.2352L71.4776 39.9002C71.3515 40.1503 71.1461 40.3529 70.8926 40.477C70.6392 40.6013 70.3517 40.6403 70.0737 40.5882C69.7957 40.5362 69.5426 40.3958 69.3528 40.1886C69.1631 39.9814 69.047 39.7186 69.0224 39.4403L66.6941 13.2748L61.6919 34.8761C61.6397 35.0911 61.5227 35.2854 61.3565 35.4334C61.1902 35.5814 60.9825 35.6762 60.7606 35.7054C60.5378 35.7339 60.3115 35.6952 60.1113 35.5946C59.9111 35.4938 59.7464 35.3357 59.6388 35.1409L57.2047 30.7022C56.3244 31.8924 55.1662 32.8553 53.8287 33.5091C52.4911 34.163 51.0136 34.4885 49.5215 34.4581H29.6679L29.936 32.27H49.5215C50.8766 32.2788 52.2082 31.9203 53.3713 31.2335C54.5345 30.5467 55.4846 29.5579 56.1182 28.3748C56.2511 28.0996 56.4496 27.8605 56.6968 27.678C56.8245 27.5924 56.9691 27.5345 57.1211 27.5081C57.2731 27.4817 57.429 27.4873 57.5787 27.5247C57.7281 27.5619 57.868 27.6293 57.9895 27.723C58.111 27.8166 58.2113 27.9341 58.2842 28.0682L60.2173 31.5523L65.6146 8.55727C65.6399 8.18765 65.8128 7.84309 66.0953 7.59937C66.3778 7.35566 66.7467 7.23276 67.121 7.25771C67.4952 7.28265 67.8441 7.45341 68.0908 7.73241C68.3376 8.0114 68.462 8.3758 68.4368 8.74541L70.9626 36.2558L74.2292 29.3573C74.3087 29.206 74.4228 29.075 74.5624 28.9746C74.7019 28.8743 74.8632 28.8073 75.0335 28.779C75.2032 28.7541 75.3764 28.7674 75.5402 28.8182C75.7039 28.8688 75.8539 28.9555 75.9789 29.0716C76.2112 29.3342 76.4016 29.6302 76.5433 29.9496C76.9596 30.737 77.7286 32.2004 78.7304 32.2004L80.0004 32.291ZM44.2018 17.3511V17.3093C44.6463 13.7904 47.3132 11.8044 49.8813 11.8044C50.5705 11.7801 51.2534 11.9409 51.8573 12.2698C52.4611 12.5987 52.9633 13.0833 53.3102 13.6719L53.5148 12.0204H55.9771L54.6578 22.64H52.2096L52.4142 20.9049C51.9629 21.5128 51.3751 22.0091 50.6969 22.3549C50.0188 22.7006 49.2687 22.8865 48.5056 22.8978C45.9798 22.863 43.7432 20.9049 44.2018 17.3511ZM49.3875 20.7516C50.291 20.6979 51.1447 20.3246 51.7925 19.7002C52.4403 19.0758 52.8388 18.242 52.9151 17.3511V17.3093C53.155 15.2606 51.8568 13.9367 50.2059 13.9367C49.2949 13.9648 48.4276 14.3287 47.7747 14.9568C47.1218 15.5849 46.7307 16.4316 46.6782 17.3303V17.372C46.4313 19.3998 47.6871 20.7516 49.3875 20.7516ZM15.4797 15.3304C17.0813 15.8878 18.1254 16.8355 17.8856 18.7448V18.8144C17.5751 21.33 15.3104 22.6749 12.1355 22.6749H5.53174L7.28145 8.59908H13.6736C15.3033 8.59908 16.5309 9.03808 17.2435 9.84639C17.5231 10.1623 17.7283 10.5355 17.8442 10.9392C17.9601 11.3428 17.9839 11.7669 17.9138 12.1807V12.2156C17.8217 12.9004 17.5481 13.5492 17.1207 14.0961C16.6933 14.6431 16.1272 15.0688 15.4797 15.3304ZM9.01 14.4942H12.4248C14.0334 14.4942 15.1904 13.874 15.3527 12.5849V12.5431C15.4868 11.4421 14.6472 10.7523 13.0668 10.7523H9.46859L9.01 14.4942ZM12.714 16.5846H8.74895L8.26919 20.4519H12.4177C14.1321 20.4519 15.2398 19.7552 15.4092 18.5149V18.48C15.5644 17.2884 14.6895 16.5846 12.6999 16.5846H12.714ZM27.6219 12.0204L26.874 18.0131C26.8484 18.7168 26.5473 19.3832 26.034 19.872C25.5207 20.3607 24.8354 20.6336 24.1224 20.6332C22.662 20.6332 21.9424 19.7064 22.147 18.0549L22.8948 12.0204H20.4607L19.5929 18.8144C19.2825 21.2882 20.489 22.8978 22.9089 22.8978C23.6153 22.8897 24.3095 22.7155 24.934 22.3894C25.5585 22.0634 26.0954 21.5952 26.5001 21.0234L26.2955 22.6749H28.7789L30.1053 12.0553L27.6219 12.0204ZM33.2097 25.8593H30.7403L32.4548 12.0204H34.9241L34.7054 13.7904C35.1581 13.1828 35.7474 12.6873 36.4268 12.3427C37.1063 11.9981 37.8574 11.8139 38.6211 11.8044C41.1469 11.8044 43.3622 13.7695 42.9248 17.3093V17.3511C42.4874 20.87 39.7993 22.863 37.2806 22.863C36.5897 22.8871 35.9051 22.7255 35.3 22.3954C34.6948 22.0653 34.1918 21.579 33.8446 20.9885L33.2097 25.8593ZM36.9137 20.7516C37.8253 20.7218 38.6926 20.3564 39.3454 19.7272C39.9981 19.098 40.389 18.2505 40.4413 17.3511V17.3093C40.6742 15.2606 39.4395 13.9367 37.7674 13.9367C36.8645 13.9888 36.0108 14.3606 35.3629 14.9839C34.715 15.6071 34.3163 16.4402 34.2397 17.3303V17.372C33.9505 19.3859 35.2769 20.7516 36.9137 20.7516Z" fill="white"/>
</g>
<defs>
<clipPath id="clip0_9_5">
<rect width="80" height="80" fill="white"/>
</clipPath>
</defs>
</svg>
