<svg width="80" height="80" viewBox="0 0 80 80" fill="none" xmlns="http://www.w3.org/2000/svg">
<path d="M12.4244 14.6711H9.00961L9.47526 10.8834H13.0735C14.6821 10.8834 15.4934 11.5888 15.3594 12.6962V12.7385C15.1901 14.0434 14.033 14.6711 12.4244 14.6711ZM15.4088 18.741V18.7057C15.5569 17.4996 14.7032 16.7872 12.7066 16.7872H8.74857L8.26881 20.7018H12.4173C14.1106 20.7018 15.2535 20.0247 15.4088 18.741ZM36.9133 21.0051C37.8249 20.9749 38.6922 20.6051 39.345 19.9682C39.9977 19.3313 40.3886 18.4734 40.441 17.563V17.5207C40.6738 15.447 39.4391 14.1069 37.767 14.1069C36.8641 14.1596 36.0104 14.5359 35.3625 15.1668C34.7146 15.7977 34.3159 16.6409 34.2393 17.5419V17.5842C33.9501 19.6226 35.2765 21.0051 36.9133 21.0051ZM49.3588 21.0051C50.2624 20.9507 51.1161 20.5729 51.7639 19.9409C52.4117 19.3088 52.8102 18.4647 52.8865 17.563V17.5207C53.1546 15.447 51.8564 14.1069 50.2055 14.1069C49.2945 14.1353 48.4272 14.5037 47.7743 15.1394C47.1215 15.7752 46.7303 16.6322 46.6778 17.5419V17.5842C46.4309 19.6367 47.6867 21.0051 49.3871 21.0051H49.3588ZM29.9356 32.6856L29.6675 34.9004H49.5211C51.0132 34.9312 52.4907 34.6017 53.8283 33.9399C55.1659 33.278 56.324 32.3033 57.2043 31.0986L59.6384 35.5916C59.746 35.7888 59.9107 35.9488 60.1109 36.0508C60.3111 36.1527 60.5374 36.1918 60.7602 36.1629C60.9821 36.1335 61.1898 36.0375 61.3561 35.8877C61.5223 35.7378 61.6393 35.5412 61.6915 35.3236L66.6937 13.4579L69.022 39.9436C69.0466 40.2253 69.1627 40.4913 69.3524 40.7011C69.5422 40.9108 69.7953 41.0529 70.0733 41.1056C70.3512 41.1583 70.6388 41.1188 70.8922 40.993C71.1457 40.8673 71.3511 40.6623 71.4772 40.4091L75.2377 32.6503C75.9432 33.7366 77.0368 34.9215 78.7089 34.9215H80V80H0V0H80V32.6856H78.7089C77.707 32.6856 76.938 31.2044 76.5217 30.4073C76.38 30.0841 76.1897 29.7844 75.9573 29.5186C75.8324 29.401 75.6824 29.3133 75.5186 29.262C75.3549 29.2107 75.1816 29.1971 75.0119 29.2224C74.8416 29.251 74.6804 29.3188 74.5408 29.4204C74.4012 29.522 74.2872 29.6546 74.2076 29.8078L70.9339 36.7907L68.4364 8.94375C68.4616 8.56961 68.3372 8.20077 68.0904 7.91835C67.8437 7.63594 67.4948 7.4631 67.1206 7.43784C66.7463 7.41259 66.3774 7.53699 66.0949 7.78369C65.8124 8.03039 65.6395 8.37917 65.6143 8.75331L60.2169 32.0296L58.2838 28.5029C58.2109 28.3672 58.1106 28.2482 57.9891 28.1534C57.8676 28.0587 57.7277 27.9904 57.5783 27.9527C57.4286 27.9149 57.2727 27.9092 57.1207 27.9359C56.9687 27.9627 56.8241 28.0213 56.6964 28.1079C56.4492 28.2927 56.2507 28.5348 56.1178 28.8133C55.4842 30.0108 54.5341 31.0117 53.3709 31.7069C52.2078 32.4021 50.8762 32.765 49.5211 32.7561L29.9356 32.6856ZM48.5052 23.1423C49.2653 23.135 50.0135 22.9523 50.6914 22.6085C51.3694 22.2647 51.9588 21.7691 52.4138 21.1603L52.2092 22.9166H54.6715L55.9908 12.1672H53.5144L53.3098 13.8388C52.9629 13.243 52.4607 12.7525 51.8569 12.4196C51.253 12.0867 50.5701 11.9239 49.8809 11.9485C47.3128 11.9485 44.6459 13.9587 44.2014 17.5207V17.563C43.7428 21.1603 45.9794 23.1423 48.5052 23.1423ZM30.7399 26.1753H33.2093L33.809 21.2379C34.1561 21.8356 34.6591 22.3278 35.2643 22.662C35.8694 22.9961 36.554 23.1597 37.2449 23.1353C39.7919 23.1353 42.4799 21.118 42.8891 17.556V17.5137C43.3266 13.9305 41.1112 11.9415 38.5854 11.9415C37.8217 11.951 37.0706 12.1375 36.3912 12.4863C35.7117 12.8351 35.1225 13.3367 34.6697 13.9517L34.8884 12.1601H32.4544L30.7399 26.1753ZM5.53135 22.9166H12.1281C15.3029 22.9166 17.5677 21.5553 17.8781 19.009V18.9667C18.118 17.034 17.0738 16.0748 15.4723 15.5105C16.1222 15.2424 16.6894 14.8067 17.1158 14.2478C17.5422 13.689 17.8125 13.0269 17.8993 12.3294V12.2941C17.9694 11.8752 17.9456 11.446 17.8297 11.0374C17.7138 10.6288 17.5086 10.251 17.229 9.93123C16.5235 9.11303 15.2888 8.66867 13.6591 8.66867H7.28106L5.53135 22.9166ZM30.1049 12.1672H27.6215L26.8736 18.2331C26.848 18.9454 26.5469 19.62 26.0336 20.1147C25.5203 20.6094 24.835 20.8857 24.1221 20.8852C22.6616 20.8852 21.942 19.9471 22.1466 18.2754L22.8944 12.1672H20.4604L19.5926 19.0443C19.2821 21.5482 20.4886 23.1776 22.9085 23.1776C23.6149 23.1693 24.3091 22.9929 24.9336 22.663C25.5581 22.333 26.095 21.859 26.4997 21.2802L26.2951 22.9519H28.7786L30.1049 12.1672Z" fill="#0079C8"/>
<path d="M79.9999 32.6864V34.9012H78.7088C77.0367 34.9012 75.9431 33.7162 75.2376 32.63L71.4771 40.3888C71.351 40.6419 71.1456 40.847 70.8921 40.9727C70.6387 41.0984 70.3512 41.1379 70.0732 41.0852C69.7953 41.0325 69.5421 40.8905 69.3524 40.6807C69.1626 40.471 69.0465 40.205 69.0219 39.9232L66.6936 13.4376L61.6914 35.3032C61.6392 35.5208 61.5222 35.7175 61.356 35.8673C61.1898 36.0172 60.982 36.1131 60.7601 36.1426C60.5373 36.1715 60.311 36.1324 60.1108 36.0304C59.9106 35.9285 59.7459 35.7684 59.6383 35.5713L57.2042 31.0782C56.3239 32.283 55.1658 33.2577 53.8282 33.9195C52.4906 34.5814 51.0131 34.9109 49.521 34.88H29.6674L29.9355 32.6653H49.521C50.8761 32.6741 52.2077 32.3112 53.3708 31.616C54.534 30.9208 55.4841 29.9199 56.1177 28.7224C56.2506 28.4439 56.4491 28.2018 56.6963 28.017C56.824 27.9304 56.9686 27.8718 57.1206 27.8451C57.2726 27.8183 57.4285 27.8241 57.5782 27.8619C57.7276 27.8995 57.8675 27.9678 57.989 28.0626C58.1105 28.1573 58.2108 28.2763 58.2837 28.412L60.2169 31.9387L65.6142 8.66243C65.6394 8.28829 65.8123 7.93951 66.0948 7.69281C66.3773 7.44611 66.7462 7.32171 67.1205 7.34696C67.4947 7.37222 67.8436 7.54506 68.0903 7.82747C68.3371 8.10989 68.4615 8.47873 68.4363 8.85287L70.9621 36.6998L74.2287 29.7169C74.3082 29.5637 74.4223 29.4311 74.5619 29.3295C74.7015 29.2279 74.8627 29.1601 75.033 29.1315C75.2027 29.1063 75.376 29.1198 75.5397 29.1711C75.7034 29.2224 75.8534 29.3102 75.9784 29.4277C76.2107 29.6935 76.4011 29.9932 76.5428 30.3165C76.9591 31.1135 77.7281 32.5947 78.73 32.5947L79.9999 32.6864ZM44.2013 17.5639V17.5215C44.6458 13.9596 47.3127 11.9493 49.8808 11.9493C50.57 11.9247 51.2529 12.0875 51.8568 12.4204C52.4606 12.7533 52.9628 13.2438 53.3097 13.8396L53.5143 12.168H55.9766L54.6573 22.9174H52.2091L52.4137 21.1611C51.9624 21.7764 51.3746 22.2788 50.6964 22.6288C50.0183 22.9788 49.2682 23.1669 48.5051 23.1784C45.9793 23.1431 43.7427 21.1611 44.2013 17.5639ZM49.387 21.0059C50.2905 20.9515 51.1442 20.5738 51.792 19.9417C52.4398 19.3096 52.8383 18.4656 52.9146 17.5639V17.5215C53.1545 15.4478 51.8563 14.1077 50.2054 14.1077C49.2944 14.1361 48.4271 14.5045 47.7742 15.1402C47.1214 15.776 46.7302 16.633 46.6777 17.5427V17.585C46.4308 19.6376 47.6866 21.0059 49.387 21.0059ZM15.4792 15.5184C17.0808 16.0826 18.125 17.0419 17.8851 18.9745V19.0451C17.5746 21.5914 15.3099 22.9527 12.135 22.9527H5.53125L7.28096 8.70475H13.6731C15.3028 8.70475 16.5305 9.14911 17.243 9.96731C17.5226 10.2871 17.7278 10.6649 17.8437 11.0735C17.9596 11.4821 17.9834 11.9113 17.9133 12.3302V12.3655C17.8212 13.0587 17.5476 13.7154 17.1202 14.269C16.6928 14.8227 16.1267 15.2536 15.4792 15.5184ZM9.00951 14.6719H12.4243C14.0329 14.6719 15.19 14.0442 15.3522 12.7393V12.697C15.4863 11.5825 14.6467 10.8843 13.0663 10.8843H9.46811L9.00951 14.6719ZM12.7135 16.788H8.74847L8.26871 20.7026H12.4172C14.1317 20.7026 15.2393 19.9973 15.4087 18.7418V18.7065C15.5639 17.5004 14.689 16.788 12.6994 16.788H12.7135ZM27.6214 12.168L26.8735 18.2339C26.8479 18.9462 26.5468 19.6208 26.0335 20.1155C25.5202 20.6103 24.8349 20.8865 24.122 20.886C22.6615 20.886 21.9419 19.9479 22.1465 18.2763L22.8943 12.168H20.4603L19.5925 19.0451C19.282 21.549 20.4885 23.1784 22.9084 23.1784C23.6148 23.1702 24.309 22.9937 24.9335 22.6638C25.558 22.3338 26.0949 21.8598 26.4996 21.281L26.295 22.9527H28.7785L30.1048 12.2032L27.6214 12.168ZM33.2092 26.1761H30.7398L32.4543 12.168H34.9236L34.7049 13.9596C35.1577 13.3446 35.7469 12.843 36.4263 12.4942C37.1058 12.1454 37.8569 11.9589 38.6206 11.9493C41.1464 11.9493 43.3618 13.9384 42.9243 17.5215V17.5639C42.4869 21.1258 39.7988 23.1431 37.2801 23.1431C36.5892 23.1676 35.9046 23.004 35.2995 22.6698C34.6943 22.3357 34.1913 21.8434 33.8442 21.2457L33.2092 26.1761ZM36.9132 21.0059C37.8248 20.9757 38.6922 20.6059 39.3449 19.969C39.9976 19.3321 40.3885 18.4742 40.4409 17.5639V17.5215C40.6737 15.4478 39.439 14.1077 37.7669 14.1077C36.864 14.1604 36.0103 14.5367 35.3624 15.1676C34.7145 15.7985 34.3158 16.6417 34.2393 17.5427V17.585C33.95 19.6235 35.2764 21.0059 36.9132 21.0059Z" fill="white"/>
</svg>
